<?xml version="1.0" encoding="utf-8"?>
<!-- Generator: Adobe Illustrator 22.0.1, SVG Export Plug-In . SVG Version: 6.00 Build 0)  -->
<svg version="1.1" id="Layer_1" xmlns="http://www.w3.org/2000/svg" xmlns:xlink="http://www.w3.org/1999/xlink" x="0px" y="0px"
	 viewBox="0 0 134.8 40" style="enable-background:new 0 0 134.8 40;" xml:space="preserve">
<style type="text/css">
	.st0{fill:#E46855;}
	.st1{fill:#F9F9F9;}
</style>
<g>
	<path class="st0" d="M134.8,40H0L0,0l134.8,0l-14.3,21L134.8,40z"/>
</g>
<g>
	<path class="st1" d="M16.3,21.5h-6.1v6.2H6.5V12.1h10.5v2.9h-6.7v3.6h6.1V21.5z"/>
	<path class="st1" d="M28.6,21h-5.9v3.7h7v2.9H18.8V12.1h10.8v2.9h-7v3.3h5.9C28.6,18.3,28.6,21,28.6,21z"/>
	<path class="st1" d="M40.3,24.8h-5.1l-1,3h-4l5.7-15.6h3.6l5.8,15.6h-4L40.3,24.8z M36.2,21.8h3.3l-1.7-5.5L36.2,21.8z"/>
	<path class="st1" d="M57.8,14.9h-4.6v12.7h-3.8V14.9h-4.6v-2.9h13.1C57.8,12.1,57.8,14.9,57.8,14.9z"/>
	<path class="st1" d="M72.1,12.1v10.2c0,1.2-0.2,2.1-0.7,3c-0.5,0.8-1.2,1.5-2.1,1.9c-1,0.4-2,0.7-3.3,0.7c-1.9,0-3.4-0.5-4.5-1.4
		c-1.1-1-1.7-2.4-1.7-4V12.1h3.8v10.3c0,1.7,0.8,2.6,2.4,2.6c0.8,0,1.4-0.2,1.8-0.6c0.4-0.5,0.6-1.1,0.6-2.1V12.1
		C68.3,12.1,72.1,12.1,72.1,12.1z"/>
	<path class="st1" d="M80.5,22.2h-2v5.5h-3.8V12.1h6.2c1.9,0,3.3,0.4,4.4,1.2c1.1,0.8,1.5,2,1.5,3.4c0,1.1-0.2,2-0.7,2.7
		c-0.5,0.7-1.1,1.3-2,1.8l3.2,6.3v0.1h-4L80.5,22.2z M78.5,19.2h2.4c0.7,0,1.3-0.2,1.7-0.6c0.4-0.4,0.6-1,0.6-1.5
		c0-0.7-0.2-1.2-0.6-1.5c-0.4-0.4-1-0.6-1.7-0.6h-2.4V19.2z"/>
	<path class="st1" d="M99.2,21h-5.9v3.7h7v2.9H89.6V12.1h10.8v2.9h-7v3.3h5.9V21H99.2z"/>
	<path class="st1" d="M102.2,27.7V12.1h5c1.4,0,2.6,0.4,3.7,1c1.1,0.6,1.9,1.5,2.6,2.6c0.6,1.2,1,2.4,1,3.8v0.7c0,1.4-0.4,2.7-1,3.8
		c-0.6,1.2-1.4,2-2.5,2.6c-1.1,0.6-2.4,1-3.7,1h-5.1V27.7z M105.9,14.9v9.9h1.3c1.1,0,1.9-0.4,2.5-1.2c0.6-0.7,0.8-1.9,0.8-3.4v-0.6
		c0-1.5-0.2-2.6-0.8-3.4c-0.6-0.7-1.4-1.2-2.5-1.2H105.9z"/>
</g>
</svg>
